<!-- <svg xmlns="http://www.w3.org/2000/svg" xmlns:xlink="http://www.w3.org/1999/xlink" width="640" height="640" viewBox="0 0 640 640">
  <defs>
    <clipPath id="clip-Artboard_2">
      <rect width="640" height="640"/>
    </clipPath>
  </defs>
  <g id="Artboard_2" data-name="Artboard – 2" clip-path="url(#clip-Artboard_2)">
    <rect width="640" height="640" fill="rgba(106,112,252,0.4)"/>
    <circle id="Ellipse_5" data-name="Ellipse 5" cx="130" cy="130" r="130" transform="translate(190 145)" fill="#6a70fc"/>
    <path id="Subtraction_1" data-name="Subtraction 1" d="M514.57,195H98.43a208.492,208.492,0,0,1,416.14,0Z" transform="translate(14 445)" fill="#6a70fc"/>
  </g>
</svg> -->

<!-- <svg xmlns="http://www.w3.org/2000/svg" width="640" height="640" viewBox="0 0 24 24"><path fill="#008238" d="M4 22a8 8 0 1 1 16 0zm8-9c-3.315 0-6-2.685-6-6s2.685-6 6-6s6 2.685 6 6s-2.685 6-6 6"/></svg> -->
<svg xmlns="http://www.w3.org/2000/svg" width="640" height="640" viewBox="0 0 24 24"><g fill="none" fill-rule="evenodd"><path d="M24 0v24H0V0zM12.594 23.258l-.012.002l-.071.035l-.02.004l-.014-.004l-.071-.036c-.01-.003-.019 0-.024.006l-.004.01l-.017.428l.005.02l.01.013l.104.074l.015.004l.012-.004l.104-.074l.012-.016l.004-.017l-.017-.427c-.002-.01-.009-.017-.016-.018m.264-.113l-.014.002l-.184.093l-.01.01l-.003.011l.018.43l.005.012l.008.008l.201.092c.012.004.023 0 .029-.008l.004-.014l-.034-.614c-.003-.012-.01-.02-.02-.022m-.715.002a.023.023 0 0 0-.027.006l-.006.014l-.034.614c0 .012.007.02.017.024l.015-.002l.201-.093l.01-.008l.003-.011l.018-.43l-.003-.012l-.01-.01z"/><path fill="#008238" d="M12 2C6.477 2 2 6.477 2 12s4.477 10 10 10s10-4.477 10-10S17.523 2 12 2M8.5 9.5a3.5 3.5 0 1 1 7 0a3.5 3.5 0 0 1-7 0m9.758 7.484A7.985 7.985 0 0 1 12 20a7.985 7.985 0 0 1-6.258-3.016C7.363 15.821 9.575 15 12 15s4.637.821 6.258 1.984"/></g></svg>